<?xml version="1.0" standalone="no"?>
<!DOCTYPE svg PUBLIC "-//W3C//DTD SVG 20010904//EN"
 "http://www.w3.org/TR/2001/REC-SVG-20010904/DTD/svg10.dtd">
<svg version="1.0" xmlns="http://www.w3.org/2000/svg"
 width="400.000000pt" height="400.000000pt" viewBox="0 0 400.000000 400.000000"
 preserveAspectRatio="xMidYMid meet">

<g transform="translate(0.000000,400.000000) scale(0.100000,-0.100000)"
fill="#000000" stroke="none">
<path d="M0 2000 l0 -2000 2000 0 2000 0 0 2000 0 2000 -2000 0 -2000 0 0
-2000z m1990 1540 c12 -8 11 -10 -7 -10 -12 0 -25 5 -28 10 -8 13 15 13 35 0z
m153 -7 c-23 -2 -64 -2 -90 0 -26 2 -7 3 42 3 50 0 71 -1 48 -3z m-373 -13
c11 -8 7 -9 -15 -4 -37 8 -45 14 -19 14 10 0 26 -5 34 -10z m523 -7 c-7 -2
-19 -2 -25 0 -7 3 -2 5 12 5 14 0 19 -2 13 -5z m50 -10 c-7 -2 -19 -2 -25 0
-7 3 -2 5 12 5 14 0 19 -2 13 -5z m57 -7 c0 -9 -30 -14 -35 -6 -4 6 3 10 14
10 12 0 21 -2 21 -4z m-873 -22 c-3 -3 -12 -4 -19 -1 -8 3 -5 6 6 6 11 1 17
-2 13 -5z m1072 -40 c12 -12 -8 -10 -34 2 l-30 14 30 -6 c16 -3 32 -8 34 -10z
m-92 -30 c-3 -3 -12 -4 -19 -1 -8 3 -5 6 6 6 11 1 17 -2 13 -5z m-1232 -34
c-3 -5 -12 -10 -18 -10 -7 0 -6 4 3 10 19 12 23 12 15 0z m600 -20 c3 -6 -1
-7 -9 -4 -18 7 -21 14 -7 14 6 0 13 -4 16 -10z m-585 -43 c0 -2 -10 -12 -22
-23 l-23 -19 19 23 c18 21 26 27 26 19z m150 -40 c0 -2 -15 -16 -32 -33 l-33
-29 29 33 c28 30 36 37 36 29z m-390 -22 c0 -2 -10 -9 -22 -15 -22 -11 -22
-10 -4 4 21 17 26 19 26 11z m920 -29 c0 -2 -7 -7 -16 -10 -8 -3 -12 -2 -9 4
6 10 25 14 25 6z m-970 -70 c0 -2 -7 -7 -16 -10 -8 -3 -12 -2 -9 4 6 10 25 14
25 6z m880 -26 c0 -5 -21 -9 -47 -8 l-48 1 45 7 c25 4 46 8 48 8 1 1 2 -2 2
-8z m248 -2 c-2 -8 8 -13 24 -13 14 1 24 -3 21 -8 -3 -5 0 -7 8 -5 8 3 22 -4
32 -15 17 -20 17 -22 0 -39 -16 -15 -24 -16 -63 -6 -51 13 -74 35 -56 54 6 6
15 9 20 6 5 -3 7 2 3 10 -3 9 -3 19 0 22 10 9 13 7 11 -6z m913 -5 c13 -16 12
-17 -3 -4 -17 13 -22 21 -14 21 2 0 10 -8 17 -17z m-2201 -53 c-11 -11 -23
-20 -27 -20 -3 0 2 9 12 20 10 11 22 20 27 20 4 0 -1 -9 -12 -20z m255 0 c-3
-5 -12 -10 -18 -10 -7 0 -6 4 3 10 19 12 23 12 15 0z m542 -6 c-3 -3 -12 -4
-19 -1 -8 3 -5 6 6 6 11 1 17 -2 13 -5z m711 -1 c-10 -2 -26 -2 -35 0 -10 3
-2 5 17 5 19 0 27 -2 18 -5z m129 -9 c-3 -3 -12 -4 -19 -1 -8 3 -5 6 6 6 11 1
17 -2 13 -5z m-240 -22 c-13 -15 -14 -21 -4 -32 6 -8 3 -7 -9 3 -11 9 -25 14
-29 10 -5 -5 -3 0 4 9 7 10 17 16 21 13 5 -3 11 -1 15 5 3 5 9 10 12 10 3 0
-1 -8 -10 -18z m-89 -17 c-3 -3 -9 2 -12 12 -6 14 -5 15 5 6 7 -7 10 -15 7
-18z m-38 2 c0 -2 -15 -16 -32 -33 l-33 -29 29 33 c28 30 36 37 36 29z m-200
-11 c0 -2 -7 -7 -16 -10 -8 -3 -12 -2 -9 4 6 10 25 14 25 6z m21 -63 c18 -21
30 -34 25 -30 -5 4 -19 -1 -30 -10 -20 -17 -21 -17 -4 2 17 18 17 20 -9 47
-15 15 -25 28 -22 28 3 0 21 -17 40 -37z m236 -45 c-2 -13 -4 -5 -4 17 -1 22
1 32 4 23 2 -10 2 -28 0 -40z m153 7 c19 -19 32 -35 29 -35 -3 0 -20 16 -39
35 -19 19 -32 35 -29 35 3 0 20 -16 39 -35z m115 25 c3 -6 -1 -7 -9 -4 -18 7
-21 14 -7 14 6 0 13 -4 16 -10z m-405 -3 c0 -2 -10 -12 -22 -23 l-23 -19 19
23 c18 21 26 27 26 19z m-1290 -21 c0 -2 -8 -10 -17 -17 -16 -13 -17 -12 -4 4
13 16 21 21 21 13z m870 -10 c0 -2 -7 -7 -16 -10 -8 -3 -12 -2 -9 4 6 10 25
14 25 6z m820 -31 c19 -19 32 -35 29 -35 -3 0 -20 16 -39 35 -19 19 -32 35
-29 35 3 0 20 -16 39 -35z m-1110 21 c0 -2 -7 -7 -16 -10 -8 -3 -12 -2 -9 4 6
10 25 14 25 6z m560 -19 c0 -2 -10 -12 -22 -23 l-23 -19 19 23 c18 21 26 27
26 19z m90 -11 c0 -2 -8 -10 -17 -17 -16 -13 -17 -12 -4 4 13 16 21 21 21 13z
m137 -18 c-3 -8 -6 -5 -6 6 -1 11 2 17 5 13 3 -3 4 -12 1 -19z m61 5 c-10 -2
-26 -2 -35 0 -10 3 -2 5 17 5 19 0 27 -2 18 -5z m76 -8 c-4 -8 -7 -15 -9 -15
-2 0 -5 7 -9 15 -3 9 0 15 9 15 9 0 12 -6 9 -15z m476 5 c0 -5 -2 -10 -4 -10
-3 0 -8 5 -11 10 -3 6 -1 10 4 10 6 0 11 -4 11 -10z m-1890 -30 c0 -5 -5 -10
-11 -10 -5 0 -7 5 -4 10 3 6 8 10 11 10 2 0 4 -4 4 -10z m856 -30 c20 -22 39
-38 43 -35 4 2 8 -2 8 -10 0 -8 -3 -13 -6 -10 -3 3 -41 -29 -85 -72 l-81 -78
77 80 78 80 -42 43 c-24 23 -39 42 -35 42 4 0 23 -18 43 -40z m1712 20 c7 -11
11 -20 9 -20 -2 0 -12 9 -22 20 -10 11 -14 20 -9 20 5 0 15 -9 22 -20z m-2803
-34 c-37 -48 -42 -46 -9 4 15 22 29 38 31 36 3 -3 -7 -21 -22 -40z m1215 41
c0 -2 -10 -12 -22 -23 l-23 -19 19 23 c18 21 26 27 26 19z m120 -1 c0 -2 -8
-10 -17 -17 -16 -13 -17 -12 -4 4 13 16 21 21 21 13z m692 -101 c10 7 11 5 0
-6 -10 -11 -20 -5 -60 36 l-47 50 47 -44 c30 -28 51 -41 60 -36z m-1582 55 c0
-5 -5 -10 -11 -10 -5 0 -7 5 -4 10 3 6 8 10 11 10 2 0 4 -4 4 -10z m860 7 c0
-2 -10 -12 -22 -23 l-23 -19 19 23 c18 21 26 27 26 19z m66 -75 c-31 -62 -34
-71 -18 -75 13 -4 12 -5 -5 -6 -12 0 -25 4 -28 9 -3 6 -2 10 2 10 5 0 24 31
43 70 18 38 35 68 37 66 3 -2 -12 -36 -31 -74z m121 56 c-3 -8 -6 -5 -6 6 -1
11 2 17 5 13 3 -3 4 -12 1 -19z m593 18 c0 -2 -8 -10 -17 -17 -16 -13 -17 -12
-4 4 13 16 21 21 21 13z m760 -40 c0 -12 -5 -7 -19 24 -11 24 -11 24 3 6 9
-11 16 -24 16 -30z m-1363 -18 c-3 -8 -6 -5 -6 6 -1 11 2 17 5 13 3 -3 4 -12
1 -19z m190 0 c-3 -8 -6 -5 -6 6 -1 11 2 17 5 13 3 -3 4 -12 1 -19z m-421 -7
c-10 -11 -15 -25 -11 -31 3 -6 2 -9 -4 -8 -6 2 -22 -10 -37 -27 l-26 -30 23
35 c24 38 60 80 67 80 3 0 -3 -9 -12 -19z m1528 3 c3 -8 2 -12 -4 -9 -6 3 -10
10 -10 16 0 14 7 11 14 -7z m-1097 -36 c-3 -8 -6 -5 -6 6 -1 11 2 17 5 13 3
-3 4 -12 1 -19z m504 5 c13 -16 12 -17 -3 -4 -17 13 -22 21 -14 21 2 0 10 -8
17 -17z m-714 -15 c-3 -8 -6 -5 -6 6 -1 11 2 17 5 13 3 -3 4 -12 1 -19z m578
2 c10 -11 16 -20 13 -20 -3 0 -13 9 -23 20 -10 11 -16 20 -13 20 3 0 13 -9 23
-20z m-1225 -7 c12 10 12 9 0 -6 -12 -16 -9 -22 21 -55 l34 -37 -40 37 -41 38
-24 -23 -24 -22 23 27 c14 17 20 31 15 40 -6 10 -5 11 7 1 12 -10 18 -10 29 0z
m867 -25 c-3 -8 -6 -5 -6 6 -1 11 2 17 5 13 3 -3 4 -12 1 -19z m250 8 c0 -8
-8 -11 -21 -8 -19 5 -19 6 0 13 10 4 19 8 20 8 0 1 1 -5 1 -13z m-480 -18 c-3
-8 -6 -5 -6 6 -1 11 2 17 5 13 3 -3 4 -12 1 -19z m788 2 c10 -11 16 -20 13
-20 -3 0 -13 9 -23 20 -10 11 -16 20 -13 20 3 0 13 -9 23 -20z m-1759 -25 c1
-8 -2 -13 -7 -9 -5 3 -9 12 -9 21 0 19 13 9 16 -12z m1149 -15 c43 0 54 3 57
18 3 14 5 13 10 -5 6 -22 4 -23 -58 -23 l-64 0 0 -145 0 -145 84 0 83 0 -8 43
c-13 67 -8 88 6 24 7 -32 15 -60 17 -63 3 -2 29 1 57 7 29 6 54 9 57 6 3 -2
-23 -10 -57 -16 -55 -11 -60 -14 -56 -34 3 -12 13 -78 23 -147 9 -69 18 -126
20 -128 1 -2 41 4 89 13 48 9 89 15 91 12 3 -2 -36 -12 -86 -22 -90 -19 -90
-19 -89 -49 1 -56 25 -265 31 -271 3 -3 34 1 68 10 34 9 66 15 72 13 6 -2 -24
-12 -66 -22 l-76 -18 -2 -86 -2 -87 -3 85 -4 85 -76 -3 c-67 -4 -82 -8 -122
-37 -25 -18 -56 -36 -68 -39 -17 -6 -23 -15 -24 -39 0 -18 -4 -67 -7 -109 l-8
-78 46 -2 45 -2 -47 -3 c-48 -4 -48 -4 -49 -41 l-2 -37 -6 40 -6 40 -75 12
-75 12 70 -6 c39 -2 75 -6 80 -6 8 -2 28 191 20 200 -1 2 -17 -2 -36 -7 -50
-15 -139 -12 -195 5 -27 8 -54 15 -59 15 -12 0 -50 -159 -41 -168 4 -3 41 -11
84 -18 l77 -13 -65 5 c-36 3 -75 8 -87 11 -19 4 -23 1 -24 -18 l-1 -24 -7 24
c-6 21 -25 31 -131 67 -69 23 -120 43 -115 43 6 1 65 -17 130 -39 65 -22 120
-40 121 -40 1 0 9 41 19 91 18 89 17 92 -1 102 -30 17 -114 98 -131 128 -16
26 -81 55 -94 41 -10 -10 -90 -234 -92 -254 -2 -22 -1 -22 -37 -3 -36 19 -40
29 -5 13 14 -6 27 -9 28 -7 2 2 24 63 50 135 l46 132 -110 56 c-60 32 -109 59
-109 62 0 2 49 -21 110 -51 l110 -55 16 37 c9 21 20 71 25 111 4 41 10 81 13
90 2 10 7 27 11 39 5 18 -4 27 -68 62 -41 23 -77 41 -80 41 -6 0 -122 -200
-158 -273 -13 -27 -27 -51 -31 -53 -13 -8 25 68 101 199 84 148 86 131 -27
213 -37 26 -78 62 -91 78 l-25 31 27 -24 c27 -24 27 -24 49 -5 l23 19 -19 -23
c-11 -12 -17 -24 -14 -27 14 -14 152 -115 157 -115 3 0 41 57 85 126 74 118
77 126 60 139 -11 7 -30 23 -44 35 -14 12 -5 8 20 -10 l45 -31 25 32 c48 63
62 73 25 20 -20 -29 -33 -57 -28 -61 4 -4 38 -21 75 -38 l66 -30 53 114 c29
63 54 112 56 111 2 -2 -17 -48 -41 -103 -25 -54 -46 -105 -48 -113 -2 -10 18
-19 67 -32 39 -10 75 -19 81 -19 6 0 26 64 44 143 34 142 34 143 59 138 25 -5
25 -6 4 -9 -14 -2 -25 -12 -28 -25 -3 -12 -14 -62 -25 -112 -11 -49 -22 -100
-25 -112 -5 -20 -1 -23 28 -23 19 0 56 -7 82 -15 27 -8 50 -13 51 -12 1 1 5
66 9 145 l7 142 -38 2 -39 1 38 4 c26 3 37 9 38 21 1 15 2 15 6 0 4 -14 15
-18 58 -18z m191 -7 c-3 -4 -6 -1 -6 5 0 7 -10 12 -22 13 -22 0 -22 1 -3 8 20
8 44 -13 31 -26z m284 12 c13 -14 21 -25 18 -25 -2 0 -15 11 -28 25 -13 14
-21 25 -18 25 2 0 15 -11 28 -25z m-960 -15 c-12 -16 -24 -30 -26 -30 -3 0 4
14 16 30 12 17 24 30 26 30 3 0 -4 -13 -16 -30z m277 24 c-3 -3 -12 -4 -19 -1
-8 3 -5 6 6 6 11 1 17 -2 13 -5z m336 -11 c-7 -2 -19 -2 -25 0 -7 3 -2 5 12 5
14 0 19 -2 13 -5z m-1842 -30 c-12 -20 -14 -14 -5 12 4 9 9 14 11 11 3 -2 0
-13 -6 -23z m809 23 c0 -2 -8 -10 -17 -17 -16 -13 -17 -12 -4 4 13 16 21 21
21 13z m1640 -70 l54 -61 -56 54 c-51 49 -59 53 -75 40 -16 -13 -17 -12 -5 3
8 9 11 22 7 27 -17 28 26 -8 75 -63z m-663 22 c-3 -7 -5 -2 -5 12 0 14 2 19 5
13 2 -7 2 -19 0 -25z m-785 10 c-9 -9 -8 -16 6 -31 17 -19 16 -19 -8 -6 -14 8
-27 15 -29 17 -5 2 30 31 39 32 2 0 -1 -5 -8 -12z m-252 -12 c0 -2 -8 -10 -17
-17 -16 -13 -17 -12 -4 4 13 16 21 21 21 13z m1505 -16 c10 -11 16 -20 13 -20
-3 0 -13 9 -23 20 -10 11 -16 20 -13 20 3 0 13 -9 23 -20z m-447 -80 c0 -22
-1 -22 -8 5 -4 17 -8 41 -8 55 0 22 1 22 8 -5 4 -16 8 -41 8 -55z m142 45 c0
-5 -5 -3 -10 5 -5 8 -10 20 -10 25 0 6 5 3 10 -5 5 -8 10 -19 10 -25z m150 15
c6 -11 8 -20 6 -20 -3 0 -10 9 -16 20 -6 11 -8 20 -6 20 3 0 10 -9 16 -20z
m-1130 7 c0 -2 -17 -19 -37 -38 l-38 -34 34 38 c33 34 41 42 41 34z m1931 -14
c13 -16 12 -17 -3 -4 -17 13 -22 21 -14 21 2 0 10 -8 17 -17z m147 -28 c-3 -3
-9 2 -12 12 -6 14 -5 15 5 6 7 -7 10 -15 7 -18z m-745 1 c4 -10 1 -13 -8 -9
-8 3 -12 9 -9 14 7 12 11 11 17 -5z m427 -11 c13 -14 21 -25 18 -25 -2 0 -15
11 -28 25 -13 14 -21 25 -18 25 2 0 15 -11 28 -25z m-2809 -12 c-12 -20 -14
-14 -5 12 4 9 9 14 11 11 3 -2 0 -13 -6 -23z m2049 -8 c0 -5 -5 -3 -10 5 -5 8
-10 20 -10 25 0 6 5 3 10 -5 5 -8 10 -19 10 -25z m-1623 0 c0 -8 -4 -12 -9 -9
-5 3 -6 10 -3 15 9 13 12 11 12 -6z m349 -37 l29 -33 -32 29 c-31 28 -38 36
-30 36 2 0 16 -15 33 -32z m194 19 c0 -2 -17 -19 -37 -38 l-38 -34 34 38 c33
34 41 42 41 34z m1100 -32 c0 -5 -5 -3 -10 5 -5 8 -10 20 -10 25 0 6 5 3 10
-5 5 -8 10 -19 10 -25z m225 -85 c25 -49 43 -90 40 -90 -3 0 -25 41 -50 90
-25 50 -43 90 -40 90 3 0 25 -40 50 -90z m862 48 c-3 -7 -5 -2 -5 12 0 14 2
19 5 13 2 -7 2 -19 0 -25z m-1056 -18 c4 -3 4 -12 -1 -20 -6 -9 -10 -10 -10
-3 0 6 -8 10 -17 8 -10 -1 -12 0 -5 2 9 3 12 14 8 31 -6 25 -5 25 6 7 6 -11
15 -22 19 -25z m99 30 c-8 -5 -19 -10 -25 -10 -5 0 -3 5 5 10 8 5 20 10 25 10
6 0 3 -5 -5 -10z m-50 -20 c-8 -5 -19 -10 -25 -10 -5 0 -3 5 5 10 8 5 20 10
25 10 6 0 3 -5 -5 -10z m530 7 c0 -2 -12 -14 -27 -28 l-28 -24 24 28 c23 25
31 32 31 24z m245 -17 c10 -11 16 -20 13 -20 -3 0 -13 9 -23 20 -10 11 -16 20
-13 20 3 0 13 -9 23 -20z m-2615 -3 c0 -2 -19 -21 -42 -42 l-43 -40 40 43 c36
39 45 47 45 39z m2857 -29 c-3 -7 -5 -2 -5 12 0 14 2 19 5 13 2 -7 2 -19 0
-25z m-1008 -183 c0 -5 -14 28 -30 75 -16 46 -29 89 -28 95 0 5 14 -28 30 -75
16 -46 29 -89 28 -95z m-1309 162 c0 -2 -10 -12 -22 -23 l-23 -19 19 23 c18
21 26 27 26 19z m1750 -20 c0 -2 -12 -14 -27 -28 l-28 -24 24 28 c23 25 31 32
31 24z m-1790 -31 c0 -2 -8 -10 -17 -17 -16 -13 -17 -12 -4 4 13 16 21 21 21
13z m-310 -10 c0 -2 -8 -10 -17 -17 -16 -13 -17 -12 -4 4 13 16 21 21 21 13z
m85 -46 c10 -11 16 -20 13 -20 -3 0 -13 9 -23 20 -10 11 -16 20 -13 20 3 0 13
-9 23 -20z m185 6 c0 -2 -8 -10 -17 -17 -16 -13 -17 -12 -4 4 13 16 21 21 21
13z m-30 -40 c0 -2 -8 -10 -17 -17 -16 -13 -17 -12 -4 4 13 16 21 21 21 13z
m2327 -18 c-3 -8 -6 -5 -6 6 -1 11 2 17 5 13 3 -3 4 -12 1 -19z m-2422 -18
c10 -11 16 -20 13 -20 -3 0 -13 9 -23 20 -10 11 -16 20 -13 20 3 0 13 -9 23
-20z m1759 5 c-3 -6 -13 -11 -24 -12 -15 -1 -17 1 -8 11 15 16 38 17 32 1z
m803 -7 c-3 -8 -6 -5 -6 6 -1 11 2 17 5 13 3 -3 4 -12 1 -19z m-2515 -20 c-9
-9 -7 -18 11 -37 l22 -26 -22 19 c-20 16 -25 17 -40 5 -12 -10 -10 -4 6 19 12
17 25 32 29 32 3 0 1 -5 -6 -12z m1628 -8 c-8 -5 -19 -10 -25 -10 -5 0 -3 5 5
10 8 5 20 10 25 10 6 0 3 -5 -5 -10z m490 7 c0 -2 -10 -12 -22 -23 l-23 -19
19 23 c18 21 26 27 26 19z m-588 -41 c16 8 32 13 34 11 3 -2 -9 -10 -27 -17
-29 -12 -31 -16 -26 -54 l5 -41 -11 38 c-6 22 -17 37 -26 38 -11 0 -12 2 -4 6
8 3 11 15 8 31 l-5 27 11 -27 c10 -27 11 -27 41 -12z m-1865 -1 c0 -8 -4 -12
-9 -9 -5 3 -6 10 -3 15 9 13 12 11 12 -6z m-440 -37 c-3 -8 -6 -5 -6 6 -1 11
2 17 5 13 3 -3 4 -12 1 -19z m941 -82 c3 -6 -22 12 -57 39 -34 27 -65 54 -69
59 -3 6 22 -12 57 -39 34 -27 65 -54 69 -59z m1871 67 c-13 -16 -25 -29 -25
-31 -1 -2 -4 4 -8 13 -3 9 -2 14 3 11 4 -3 16 3 26 14 10 11 20 20 23 20 3 0
-5 -12 -19 -27z m-2328 -10 c13 -16 12 -17 -3 -4 -10 7 -18 15 -18 17 0 8 8 3
21 -13z m-494 -35 c-3 -7 -5 -2 -5 12 0 14 2 19 5 13 2 -7 2 -19 0 -25z m3250
-10 c-3 -8 -6 -5 -6 6 -1 11 2 17 5 13 3 -3 4 -12 1 -19z m60 -30 c-2 -13 -4
-5 -4 17 -1 22 1 32 4 23 2 -10 2 -28 0 -40z m-2776 25 c13 -16 12 -17 -3 -4
-10 7 -18 15 -18 17 0 8 8 3 21 -13z m1776 -15 c-3 -8 -6 -5 -6 6 -1 11 2 17
5 13 3 -3 4 -12 1 -19z m-1732 -38 c10 -11 16 -20 13 -20 -3 0 -13 9 -23 20
-10 11 -16 20 -13 20 3 0 13 -9 23 -20z m1742 -2 c-3 -8 -6 -5 -6 6 -1 11 2
17 5 13 3 -3 4 -12 1 -19z m10 -40 c-3 -8 -6 -5 -6 6 -1 11 2 17 5 13 3 -3 4
-12 1 -19z m296 -2 c-19 -25 -25 -25 -29 -1 -1 7 4 11 11 9 7 -3 16 -1 20 5 3
6 8 11 11 11 3 0 -3 -11 -13 -24z m674 -23 c-3 -10 -5 -2 -5 17 0 19 2 27 5
18 2 -10 2 -26 0 -35z m-2680 20 c0 -9 -4 -10 -14 -2 -7 6 -13 12 -13 14 0 1
6 2 13 2 8 0 14 -6 14 -14z m1720 -35 c-3 -8 -6 -5 -6 6 -1 11 2 17 5 13 3 -3
4 -12 1 -19z m-1676 -5 c13 -16 12 -17 -3 -4 -17 13 -22 21 -14 21 2 0 10 -8
17 -17z m2626 -25 c-3 -8 -6 -5 -6 6 -1 11 2 17 5 13 3 -3 4 -12 1 -19z m-940
-10 c-3 -8 -6 -5 -6 6 -1 11 2 17 5 13 3 -3 4 -12 1 -19z m-1636 -5 c13 -16
12 -17 -3 -4 -10 7 -18 15 -18 17 0 8 8 3 21 -13z m1739 7 c-8 -5 -19 -10 -25
-10 -5 0 -3 5 5 10 8 5 20 10 25 10 6 0 3 -5 -5 -10z m-90 -36 c0 -8 -5 -12
-10 -9 -6 4 -8 11 -5 16 9 14 15 11 15 -7z m-1595 -14 c10 -11 16 -20 13 -20
-3 0 -13 9 -23 20 -10 11 -16 20 -13 20 3 0 13 -9 23 -20z m2145 11 c0 -5 -7
-12 -16 -15 -14 -5 -15 -4 -4 9 14 17 20 19 20 6z m-587 -8 c-7 -2 -19 -2 -25
0 -7 3 -2 5 12 5 14 0 19 -2 13 -5z m824 -15 c-3 -8 -6 -5 -6 6 -1 11 2 17 5
13 3 -3 4 -12 1 -19z m140 -55 c-2 -16 -4 -3 -4 27 0 30 2 43 4 28 2 -16 2
-40 0 -55z m-1010 61 c-3 -3 -12 -4 -19 -1 -8 3 -5 6 6 6 11 1 17 -2 13 -5z
m90 -36 c-3 -7 -5 -2 -5 12 0 14 2 19 5 13 2 -7 2 -19 0 -25z m493 18 c0 -2
-8 -10 -17 -17 -16 -13 -17 -12 -4 4 13 16 21 21 21 13z m-2020 -21 c6 4 9 2
8 -4 -2 -5 6 -17 17 -26 19 -15 18 -15 -11 -1 -17 8 -37 23 -45 33 -13 16 -12
17 3 5 9 -8 22 -11 28 -7z m1537 -47 c-3 -8 -6 -5 -6 6 -1 11 2 17 5 13 3 -3
4 -12 1 -19z m-1556 -15 c-12 -20 -14 -14 -5 12 4 9 9 14 11 11 3 -2 0 -13 -6
-23z m-784 -15 c-3 -8 -6 -5 -6 6 -1 11 2 17 5 13 3 -3 4 -12 1 -19z m973 -34
c0 -2 -13 2 -30 11 -16 9 -30 18 -30 21 0 2 14 -2 30 -11 17 -9 30 -18 30 -21z
m1377 4 c-3 -7 -5 -2 -5 12 0 14 2 19 5 13 2 -7 2 -19 0 -25z m343 28 c0 -2
-8 -10 -17 -17 -16 -13 -17 -12 -4 4 13 16 21 21 21 13z m-333 -78 c-3 -8 -6
-5 -6 6 -1 11 2 17 5 13 3 -3 4 -12 1 -19z m-1786 -5 c13 -16 12 -17 -3 -4
-10 7 -18 15 -18 17 0 8 8 3 21 -13z m2630 -30 c-12 -20 -14 -14 -5 12 4 9 9
14 11 11 3 -2 0 -13 -6 -23z m-834 -15 c-3 -8 -6 -5 -6 6 -1 11 2 17 5 13 3
-3 4 -12 1 -19z m-1736 -5 c13 -16 12 -17 -3 -4 -17 13 -22 21 -14 21 2 0 10
-8 17 -17z m1427 -100 c-1 -65 -3 -92 -5 -60 l-4 57 -112 2 -112 2 113 3 112
4 0 54 c0 30 2 55 5 55 3 0 4 -53 3 -117z m-1004 63 c-3 -15 -8 -25 -11 -23
-2 3 -1 17 3 31 3 15 8 25 11 23 2 -3 1 -17 -3 -31z m1328 -11 c-2 -19 -6 -35
-8 -35 -2 0 -4 16 -4 35 0 19 4 35 8 35 4 0 6 -16 4 -35z m-1682 9 c0 -8 -19
-13 -24 -6 -3 5 1 9 9 9 8 0 15 -2 15 -3z m1487 -30 c-3 -3 -12 -4 -19 -1 -8
3 -5 6 6 6 11 1 17 -2 13 -5z m-90 -20 c-3 -3 -12 -4 -19 -1 -8 3 -5 6 6 6 11
1 17 -2 13 -5z m-720 -56 c-3 -7 -5 -2 -5 12 0 14 2 19 5 13 2 -7 2 -19 0 -25z
m1010 -10 c-3 -7 -5 -2 -5 12 0 14 2 19 5 13 2 -7 2 -19 0 -25z m328 2 c-3 -5
-12 -10 -18 -10 -7 0 -6 4 3 10 19 12 23 12 15 0z m-1348 -42 c-3 -7 -5 -2 -5
12 0 14 2 19 5 13 2 -7 2 -19 0 -25z m-372 -28 c-4 -12 -9 -19 -12 -17 -3 3
-2 15 2 27 4 12 9 19 12 17 3 -3 2 -15 -2 -27z m722 -32 c-2 -13 -4 -5 -4 17
-1 22 1 32 4 23 2 -10 2 -28 0 -40z m-360 10 c-3 -7 -5 -2 -5 12 0 14 2 19 5
13 2 -7 2 -19 0 -25z m-776 5 c13 -16 12 -17 -3 -4 -10 7 -18 15 -18 17 0 8 8
3 21 -13z m-433 -48 c-3 -3 -9 2 -12 12 -6 14 -5 15 5 6 7 -7 10 -15 7 -18z
m1199 3 c-3 -8 -6 -5 -6 6 -1 11 2 17 5 13 3 -3 4 -12 1 -19z m1058 -8 c-3 -5
-14 -10 -23 -9 -14 0 -13 2 3 9 27 11 27 11 20 0z m-698 -47 c-3 -10 -5 -2 -5
17 0 19 2 27 5 18 2 -10 2 -26 0 -35z m-367 12 c0 -9 -6 -12 -16 -8 -13 5 -13
7 -2 14 17 11 18 11 18 -6z m43 -12 c-7 -2 -19 -2 -25 0 -7 3 -2 5 12 5 14 0
19 -2 13 -5z m70 -10 c-7 -2 -19 -2 -25 0 -7 3 -2 5 12 5 14 0 19 -2 13 -5z
m724 1 c-3 -3 -12 -4 -19 -1 -8 3 -5 6 6 6 11 1 17 -2 13 -5z m-654 -11 c-7
-2 -19 -2 -25 0 -7 3 -2 5 12 5 14 0 19 -2 13 -5z m-196 -25 c-3 -8 -6 -5 -6
6 -1 11 2 17 5 13 3 -3 4 -12 1 -19z m266 15 c-7 -2 -19 -2 -25 0 -7 3 -2 5
12 5 14 0 19 -2 13 -5z m494 1 c-3 -3 -12 -4 -19 -1 -8 3 -5 6 6 6 11 1 17 -2
13 -5z m643 -9 c-7 -9 -15 -13 -19 -10 -3 3 1 10 9 15 21 14 24 12 10 -5z
m-1067 -2 c-7 -2 -19 -2 -25 0 -7 3 -2 5 12 5 14 0 19 -2 13 -5z m225 0 c-10
-2 -28 -2 -40 0 -13 2 -5 4 17 4 22 1 32 -1 23 -4z m-186 -28 c-2 -14 -6 -25
-8 -25 -2 0 -4 11 -4 25 0 14 4 25 9 25 4 0 6 -11 3 -25z m-385 -27 c-3 -8 -6
-5 -6 6 -1 11 2 17 5 13 3 -3 4 -12 1 -19z m370 -70 c-3 -7 -5 -2 -5 12 0 14
2 19 5 13 2 -7 2 -19 0 -25z m1219 -26 c-17 -16 -18 -16 -5 5 7 12 15 20 18
17 3 -2 -3 -12 -13 -22z m-186 -37 c-7 -9 -15 -13 -19 -10 -3 3 1 10 9 15 21
14 24 12 10 -5z m-2190 -30 c13 -14 21 -25 18 -25 -2 0 -15 11 -28 25 -13 14
-21 25 -18 25 2 0 15 -11 28 -25z m1463 -22 c-18 -2 -48 -2 -65 0 -18 2 -4 4
32 4 36 0 50 -2 33 -4z m-260 -10 c-13 -2 -35 -2 -50 0 -16 2 -5 4 22 4 28 0
40 -2 28 -4z m-386 -159 c-3 -3 -12 -4 -19 -1 -8 3 -5 6 6 6 11 1 17 -2 13 -5z
m70 -10 c-3 -3 -12 -4 -19 -1 -8 3 -5 6 6 6 11 1 17 -2 13 -5z m130 -20 c-3
-3 -12 -4 -19 -1 -8 3 -5 6 6 6 11 1 17 -2 13 -5z m70 -10 c-3 -3 -12 -4 -19
-1 -8 3 -5 6 6 6 11 1 17 -2 13 -5z m-864 -78 c26 -15 47 -30 47 -33 0 -6 -96
49 -123 71 l-22 18 25 -14 c14 -8 46 -27 73 -42z m128 -83 c13 -16 12 -17 -3
-4 -10 7 -18 15 -18 17 0 8 8 3 21 -13z m1176 -109 c-3 -3 -12 -4 -19 -1 -8 3
-5 6 6 6 11 1 17 -2 13 -5z m-40 -10 c-3 -3 -12 -4 -19 -1 -8 3 -5 6 6 6 11 1
17 -2 13 -5z m-40 -10 c-3 -3 -12 -4 -19 -1 -8 3 -5 6 6 6 11 1 17 -2 13 -5z
m-77 -13 c0 -5 -11 -11 -25 -13 -14 -3 -25 -3 -25 -1 0 3 34 19 48 22 1 1 2
-3 2 -8z m37 3 c-3 -3 -12 -4 -19 -1 -8 3 -5 6 6 6 11 1 17 -2 13 -5z"/>
<path d="M1577 2307 c-31 -50 -67 -106 -78 -124 l-20 -32 70 -36 c76 -38 101
-43 101 -21 0 8 20 36 43 62 43 49 101 159 92 174 -5 8 -132 70 -144 70 -3 0
-32 -42 -64 -93z"/>
<path d="M1786 2280 c-21 -53 -21 -52 17 -31 17 11 52 25 76 32 l44 13 -49 13
c-69 18 -70 18 -88 -27z"/>
<path d="M2252 2253 l-53 -4 40 -30 c45 -32 93 -93 123 -154 17 -36 19 -37 14
-10 -3 17 -10 69 -16 118 -11 80 -14 87 -34 85 -11 -1 -45 -3 -74 -5z"/>
<path d="M2388 1854 c-6 -62 -29 -122 -68 -181 l-22 -33 61 0 61 0 -1 38 c0
20 -6 82 -13 137 l-12 100 -6 -61z"/>
<path d="M1588 1791 c-15 -38 -15 -39 6 -45 42 -11 44 -8 29 36 -8 24 -16 44
-17 46 -2 1 -10 -15 -18 -37z"/>
</g>
</svg>
